<svg xmlns="http://www.w3.org/2000/svg" viewBox="0 0 1280 640" width="1280" height="640" role="img" aria-label="Hermes Skills — Windows ports, migrated from the upstream Hermes Agent optional skills">
  <defs>
    <radialGradient id="ink" cx="0.34" cy="0.44" r="0.85">
      <stop offset="0" stop-color="#1B2130"/>
      <stop offset="0.55" stop-color="#101520"/>
      <stop offset="1" stop-color="#070A0F"/>
    </radialGradient>
    <linearGradient id="gold" x1="0" y1="0" x2="0" y2="1">
      <stop offset="0" stop-color="#F8E7AE"/>
      <stop offset="0.4" stop-color="#E4C063"/>
      <stop offset="0.75" stop-color="#C1932F"/>
      <stop offset="1" stop-color="#8F6A1F"/>
    </linearGradient>
    <linearGradient id="feather" x1="0" y1="0" x2="0" y2="1">
      <stop offset="0" stop-color="#F1DA95"/>
      <stop offset="1" stop-color="#AA7E24"/>
    </linearGradient>
    <linearGradient id="snakeA" x1="0" y1="0" x2="0" y2="1">
      <stop offset="0" stop-color="#FFF6DA"/>
      <stop offset="1" stop-color="#DDBB62"/>
    </linearGradient>
    <linearGradient id="snakeB" x1="0" y1="0" x2="0" y2="1">
      <stop offset="0" stop-color="#E7C56C"/>
      <stop offset="1" stop-color="#A87F26"/>
    </linearGradient>
  </defs>

  <!-- engraved plate -->
  <rect width="1280" height="640" fill="url(#ink)"/>
  <g stroke="#E4C063" fill="none">
    <rect x="24.5" y="24.5" width="1231" height="591" stroke-opacity="0.5" stroke-width="3"/>
    <rect x="37.5" y="37.5" width="1205" height="565" stroke-opacity="0.22" stroke-width="1.6"/>
  </g>

  <!-- medallion: the messenger's staff -->
  <g transform="translate(92,161) scale(0.62)">
    <circle cx="256" cy="256" r="208" fill="none" stroke="url(#gold)" stroke-width="8"/>

    <line x1="256" y1="130" x2="256" y2="392" stroke="#0A0D13" stroke-width="22" stroke-linecap="round"/>
    <line x1="256" y1="130" x2="256" y2="392" stroke="url(#gold)" stroke-width="26" stroke-linecap="round"/>
    <circle cx="256" cy="116" r="16" fill="url(#feather)" stroke="#0A0D13" stroke-opacity="0.45" stroke-width="2"/>
    <rect x="234" y="392" width="44" height="13" rx="6.5" fill="url(#gold)" stroke="#0A0D13" stroke-opacity="0.4" stroke-width="1.5"/>

    <g fill="url(#feather)" stroke="#7F5C1C" stroke-opacity="0.4" stroke-width="2">
      <path d="M 264 176
               C 298 154, 336 138, 378 134
               C 366 148, 356 156, 346 162
               C 362 168, 370 176, 374 186
               C 356 184, 340 188, 326 196
               C 340 206, 346 216, 348 228
               C 328 220, 310 220, 294 224
               C 298 238, 298 250, 296 260
               C 282 242, 272 224, 264 206
               Z"/>
      <path d="M 248 176
               C 214 154, 176 138, 134 134
               C 146 148, 156 156, 166 162
               C 150 168, 142 176, 138 186
               C 156 184, 172 188, 186 196
               C 172 206, 166 216, 164 228
               C 184 220, 202 220, 218 224
               C 214 238, 214 250, 216 260
               C 230 242, 240 224, 248 206
               Z"/>
    </g>

    <g fill="none" stroke-linecap="round">
      <path d="M 268 358 C 306 342, 306 310, 264 296 C 222 282, 222 250, 264 236 C 306 222, 306 204, 276 196"
            stroke="#0A0D13" stroke-width="15"/>
      <path d="M 244 354 C 206 338, 206 306, 248 292 C 290 278, 290 246, 248 232 C 206 218, 206 200, 236 192"
            stroke="#0A0D13" stroke-width="15"/>
      <path d="M 268 358 C 306 342, 306 310, 264 296 C 222 282, 222 250, 264 236 C 306 222, 306 204, 276 196"
            stroke="url(#snakeA)" stroke-width="10"/>
      <path d="M 244 354 C 206 338, 206 306, 248 292 C 290 278, 290 246, 248 232 C 206 218, 206 200, 236 192"
            stroke="url(#snakeB)" stroke-width="10"/>
      <path d="M 264 236 C 306 222, 306 204, 276 196" stroke="#0A0D13" stroke-width="15"/>
      <path d="M 264 236 C 306 222, 306 204, 276 196" stroke="url(#snakeA)" stroke-width="10"/>
    </g>

    <g>
      <g transform="rotate(-42 280 192)">
        <ellipse cx="280" cy="192" rx="16" ry="11" fill="url(#snakeA)" stroke="#0A0D13" stroke-width="2"/>
      </g>
      <circle cx="285" cy="188" r="3" fill="#0A0D13"/>
      <path d="M 295 187 L 308 179 M 295 190 L 309 188" stroke="#DDBB62" stroke-width="3" stroke-linecap="round"/>
      <g transform="rotate(42 232 188)">
        <ellipse cx="232" cy="188" rx="16" ry="11" fill="url(#snakeB)" stroke="#0A0D13" stroke-width="2"/>
      </g>
      <circle cx="227" cy="184" r="3" fill="#0A0D13"/>
      <path d="M 217 183 L 204 175 M 217 186 L 203 184" stroke="#D6AC48" stroke-width="3" stroke-linecap="round"/>
    </g>
  </g>

  <!-- title block -->
  <g font-family="'Palatino Linotype', Palatino, Georgia, 'Times New Roman', serif" fill="url(#gold)">
    <text x="580" y="228" font-size="74" letter-spacing="10">HERMES</text>
    <text x="580" y="304" font-size="74" letter-spacing="10">SKILLS</text>
  </g>
  <line x1="580" y1="340" x2="1178" y2="340" stroke="#E4C063" stroke-opacity="0.5" stroke-width="2"/>

  <text x="580" y="386" font-size="25" letter-spacing="12" fill="#D3B25C"
        font-family="'Segoe UI', system-ui, sans-serif">WINDOWS PORTS</text>

  <g font-family="Consolas, 'Cascadia Mono', 'Courier New', monospace">
    <text x="580" y="446" font-size="21" fill="#BCC6D4">searxng-search · web-pentest · research-paper-writing</text>
    <text x="580" y="484" font-size="21" fill="#96A1B2">migrated from the upstream Hermes Agent optional skills</text>
  </g>

  <g stroke="#E4C063" stroke-opacity="0.34" stroke-width="1.8">
    <line x1="580" y1="536" x2="1000" y2="536"/>
    <line x1="1030" y1="536" x2="1178" y2="536"/>
  </g>
  <circle cx="1015" cy="536" r="3.4" fill="#E4C063" fill-opacity="0.6"/>
</svg>
